<svg width="1514" height="1539" viewBox="0 0 1514 1539" fill="none" xmlns="http://www.w3.org/2000/svg">
<rect x="755" y="427" width="13" height="125" fill="#43A9BE"/>
<path d="M1060 798C1060 922.54 926.476 965 763 965C599.524 965 468 922.54 468 798C468 673.46 599.524 514 763 514C926.476 514 1060 673.46 1060 798Z" fill="#43A9BE"/>
<path d="M396.953 990.287C409.211 948.311 458.394 947.142 513.494 963.232C568.593 979.323 608.744 1006.58 596.486 1048.56C584.228 1090.53 524.203 1131.33 469.104 1115.24C414.004 1099.15 384.695 1032.26 396.953 990.287Z" fill="#D1B85C"/>
<path d="M682.253 1058.07C681.319 1014.35 727.873 998.441 785.261 997.214C842.648 995.987 889.138 1009.91 890.073 1053.62C891.007 1097.34 846.033 1154.31 788.645 1155.54C731.258 1156.76 683.188 1101.79 682.253 1058.07Z" fill="#FFD642"/>
<path d="M757 514C759.503 514 761.999 514.037 764.488 514.111C652.018 569.242 577 668.374 577 781.5C577 846.419 601.705 906.73 644.016 956.761C536.95 939.251 462 892.014 462 798C462 673.46 593.524 514 757 514Z" fill="#22899E"/>
<path d="M963.212 1062.9C937.699 1027.39 967.077 987.925 1013.69 954.435C1060.31 920.944 1106.52 906.108 1132.03 941.623C1157.55 977.138 1152.71 1049.56 1106.09 1083.05C1059.47 1116.54 988.726 1098.42 963.212 1062.9Z" fill="#FFD642"/>
<path d="M1190 949.73C1190 1019.59 996.139 1076.23 757 1076.23C517.861 1076.23 324 1019.59 324 949.73C324 879.866 463.5 803.23 757 823.23C1116.5 823.23 1190 879.866 1190 949.73Z" fill="#EB5C35"/>
<path d="M341.575 906.595C364.999 969.817 545.412 1019 764.5 1019C972.679 1019 1145.94 974.592 1182.77 915.929C1188.32 926.622 1190.9 937.53 1190.9 948.279C1190.9 1018.14 997.04 1074.78 757.9 1074.78C518.761 1074.78 324.9 1018.14 324.9 948.279C324.9 934.381 330.42 920.215 341.575 906.595Z" fill="#F17B5B"/>
<path d="M528.905 864.23C521.25 860.143 511.826 860.504 502.554 864.921C493.282 869.336 484.407 877.726 478.311 889.145C472.214 900.564 470.18 912.606 471.669 922.766C473.158 932.928 478.101 940.96 485.756 945.048C493.411 949.135 502.836 948.773 512.108 944.357C521.379 939.941 530.254 931.552 536.351 920.133C542.448 908.714 544.481 896.672 542.992 886.511C541.504 876.35 536.561 868.317 528.905 864.23Z" fill="#D43F16" stroke="#F17B5B" stroke-width="7"/>
<circle cx="762" cy="408" r="25" fill="#FFD642"/>
<path d="M577.013 824C558.324 862.211 548 904.158 548 948.167C548 989.069 556.918 1028.19 573.181 1064.19C427.026 1043.87 326 1000.33 326 949.896C326 896.492 407.512 839.131 577.013 824Z" fill="#B53612" fill-opacity="0.59"/>
<path d="M1008.76 867.23C1016.41 863.143 1025.84 863.504 1035.11 867.921C1044.38 872.336 1053.25 880.726 1059.35 892.145C1065.45 903.564 1067.48 915.606 1065.99 925.766C1064.5 935.928 1059.56 943.96 1051.91 948.048C1044.25 952.135 1034.83 951.773 1025.55 947.357C1016.28 942.941 1007.41 934.552 1001.31 923.133C995.214 911.714 993.18 899.672 994.669 889.511C996.158 879.35 1001.1 871.317 1008.76 867.23Z" fill="#D43F16" stroke="#F17B5B" stroke-width="7"/>
<path d="M858.072 874.751C866.458 872.517 875.551 875.018 883.572 881.433C891.592 887.846 898.32 898.039 901.652 910.547C904.984 923.056 904.217 935.244 900.451 944.797C896.684 954.352 890.039 961.045 881.654 963.279C873.268 965.513 864.174 963.012 856.154 956.597C848.134 950.183 841.406 939.991 838.074 927.483C834.742 914.974 835.508 902.786 839.275 893.232C843.042 883.678 849.686 876.984 858.072 874.751Z" fill="#D43F16" stroke="#F17B5B" stroke-width="7"/>
<path d="M700.654 874.751C692.268 872.517 683.174 875.018 675.154 881.433C667.134 887.846 660.406 898.039 657.074 910.547C653.742 923.056 654.508 935.244 658.275 944.797C662.042 954.352 668.686 961.045 677.072 963.279C685.458 965.513 694.551 963.012 702.572 956.597C710.592 950.183 717.32 939.991 720.652 927.483C723.984 914.974 723.217 902.786 719.451 893.232C715.684 883.678 709.039 876.984 700.654 874.751Z" fill="#D43F16" stroke="#F17B5B" stroke-width="7"/>
<path d="M972.867 656.464C1018.08 721.287 1030.49 792.265 1009.42 806.963C988.348 821.66 961.582 771.126 916.366 706.302C871.15 641.478 790.465 617.332 845.677 572.216C877.331 546.349 915.305 582.59 972.867 656.464Z" fill="#65C5D9"/>
<path d="M741.5 409C741.807 418.462 747.756 426.526 750.832 426.426C753.907 426.326 752.854 419.558 752.547 410.096C752.24 400.634 758.252 392.533 749.719 392.161C744.828 391.948 741.729 397.785 741.5 409Z" fill="#FFE99B"/>
<path d="M829.065 1132.43C849.063 1120.95 859.606 1098.94 855.876 1092.44C852.145 1085.94 838.793 1095.94 818.794 1107.42C798.795 1118.9 774.501 1115.22 783.454 1134C788.586 1144.77 804.682 1144.76 829.065 1132.43Z" fill="#FFE99B"/>
<path d="M1090.06 1082.43C1110.06 1070.95 1120.61 1048.94 1116.88 1042.44C1113.15 1035.94 1099.79 1045.94 1079.79 1057.42C1059.8 1068.9 1035.5 1065.22 1044.45 1084C1049.59 1094.77 1065.68 1094.76 1090.06 1082.43Z" fill="#FFE99B"/>
</svg>
