<svg width="1514" height="1539" viewBox="0 0 1514 1539" fill="none" xmlns="http://www.w3.org/2000/svg">
<rect x="755" y="178" width="13" height="125" fill="#43A9BE"/>
<path d="M1060 549C1060 673.54 926.476 716 763 716C599.524 716 468 673.54 468 549C468 424.46 599.524 265 763 265C926.476 265 1060 424.46 1060 549Z" fill="#43A9BE"/>
<path d="M1015 1271H1011.31C1011.77 1274.14 1012 1277.3 1012 1280.5C1012 1349.81 903.205 1406 769 1406C634.795 1406 526 1349.81 526 1280.5C526 1271.01 528.038 1261.77 531.9 1252.89L615 734H910L1015 1271Z" fill="url(#paint0_linear_45_105)"/>
<path d="M396.953 741.287C409.211 699.311 458.394 698.142 513.494 714.233C568.593 730.323 608.744 757.579 596.486 799.555C584.228 841.532 524.203 882.332 469.104 866.242C414.004 850.151 384.695 783.264 396.953 741.287Z" fill="#D1B85C"/>
<path d="M682.253 809.068C681.319 765.348 727.873 749.441 785.261 748.214C842.648 746.987 889.138 760.905 890.073 804.625C891.007 848.344 846.033 905.309 788.645 906.536C731.258 907.763 683.188 852.787 682.253 809.068Z" fill="#FFD642"/>
<path d="M757 265C759.503 265 761.999 265.037 764.488 265.111C652.018 320.242 577 419.374 577 532.5C577 597.419 601.705 657.73 644.016 707.761C536.95 690.251 462 643.014 462 549C462 424.46 593.524 265 757 265Z" fill="#22899E"/>
<path d="M963.212 813.902C937.699 778.387 967.077 738.925 1013.69 705.435C1060.31 671.945 1106.52 657.108 1132.03 692.623C1157.55 728.138 1152.71 800.555 1106.09 834.046C1059.47 867.536 988.726 849.417 963.212 813.902Z" fill="#FFD642"/>
<path d="M1190 700.73C1190 770.594 996.139 827.23 757 827.23C517.861 827.23 324 770.594 324 700.73C324 630.866 463.5 554.23 757 574.23C1116.5 574.23 1190 630.866 1190 700.73Z" fill="#EB5C35"/>
<path d="M341.575 657.595C364.999 720.817 545.412 770 764.5 770C972.679 770 1145.94 725.592 1182.77 666.929C1188.32 677.622 1190.9 688.53 1190.9 699.279C1190.9 769.143 997.04 825.779 757.9 825.779C518.761 825.779 324.9 769.143 324.9 699.279C324.9 685.381 330.42 671.215 341.575 657.595Z" fill="#F17B5B"/>
<path d="M528.905 615.23C521.25 611.143 511.826 611.504 502.554 615.921C493.282 620.336 484.407 628.725 478.311 640.145C472.214 651.564 470.18 663.606 471.669 673.766C473.158 683.928 478.101 691.96 485.756 696.048C493.411 700.135 502.836 699.773 512.108 695.357C521.379 690.941 530.254 682.552 536.351 671.133C542.448 659.714 544.481 647.672 542.992 637.511C541.504 627.349 536.561 619.317 528.905 615.23Z" fill="#D43F16" stroke="#F17B5B" stroke-width="7"/>
<circle cx="762" cy="159" r="25" fill="#FFD642"/>
<path d="M577.013 575C558.324 613.211 548 655.158 548 699.167C548 740.069 556.918 779.19 573.181 815.186C427.026 794.868 326 751.331 326 700.896C326 647.492 407.512 590.131 577.013 575Z" fill="#B53612" fill-opacity="0.59"/>
<path d="M1008.76 618.23C1016.41 614.143 1025.84 614.504 1035.11 618.921C1044.38 623.336 1053.25 631.725 1059.35 643.145C1065.45 654.564 1067.48 666.606 1065.99 676.766C1064.5 686.928 1059.56 694.96 1051.91 699.048C1044.25 703.135 1034.83 702.773 1025.55 698.357C1016.28 693.941 1007.41 685.552 1001.31 674.133C995.214 662.714 993.18 650.672 994.669 640.511C996.158 630.349 1001.1 622.317 1008.76 618.23Z" fill="#D43F16" stroke="#F17B5B" stroke-width="7"/>
<path d="M858.072 625.751C866.458 623.517 875.551 626.018 883.572 632.433C891.592 638.846 898.32 649.039 901.652 661.547C904.984 674.056 904.217 686.244 900.451 695.797C896.684 705.352 890.039 712.045 881.654 714.279C873.268 716.513 864.174 714.012 856.154 707.597C848.134 701.183 841.406 690.991 838.074 678.483C834.742 665.974 835.508 653.786 839.275 644.232C843.042 634.678 849.686 627.984 858.072 625.751Z" fill="#D43F16" stroke="#F17B5B" stroke-width="7"/>
<path d="M700.654 625.751C692.268 623.517 683.174 626.018 675.154 632.433C667.134 638.846 660.406 649.039 657.074 661.547C653.742 674.056 654.508 686.244 658.275 695.797C662.042 705.352 668.686 712.045 677.072 714.279C685.458 716.513 694.551 714.012 702.572 707.597C710.592 701.183 717.32 690.991 720.652 678.483C723.984 665.974 723.217 653.786 719.451 644.232C715.684 634.678 709.039 627.984 700.654 625.751Z" fill="#D43F16" stroke="#F17B5B" stroke-width="7"/>
<path d="M972.867 407.464C1018.08 472.287 1030.49 543.265 1009.42 557.963C988.348 572.66 961.582 522.126 916.366 457.302C871.15 392.478 790.465 368.332 845.677 323.216C877.331 297.349 915.305 333.59 972.867 407.464Z" fill="#65C5D9"/>
<path d="M741.5 160C741.807 169.462 747.756 177.526 750.832 177.426C753.907 177.326 752.854 170.558 752.547 161.096C752.24 151.634 758.252 143.533 749.719 143.161C744.828 142.948 741.729 148.785 741.5 160Z" fill="#FFE99B"/>
<path d="M829.065 883.43C849.063 871.953 859.606 849.941 855.876 843.441C852.145 836.94 838.793 846.943 818.794 858.419C798.795 869.895 774.501 866.224 783.454 885C788.586 895.765 804.682 895.757 829.065 883.43Z" fill="#FFE99B"/>
<path d="M1090.06 833.43C1110.06 821.953 1120.61 799.941 1116.88 793.441C1113.15 786.94 1099.79 796.943 1079.79 808.419C1059.8 819.895 1035.5 816.224 1044.45 835C1049.59 845.765 1065.68 845.757 1090.06 833.43Z" fill="#FFE99B"/>
<defs>
<linearGradient id="paint0_linear_45_105" x1="770.5" y1="734" x2="770.5" y2="1406" gradientUnits="userSpaceOnUse">
<stop stop-color="#FFD94D"/>
<stop offset="0.509615" stop-color="#FFE99B"/>
<stop offset="0.615385" stop-color="#FFF0BA" stop-opacity="0.8"/>
<stop offset="1" stop-color="white" stop-opacity="0"/>
</linearGradient>
</defs>
</svg>
